<?xml version="1.0" encoding="UTF-8" standalone="no"?>
<!DOCTYPE svg PUBLIC "-//W3C//DTD SVG 1.1//EN" "http://www.w3.org/Graphics/SVG/1.1/DTD/svg11.dtd">
<svg version="1.1" xmlns="http://www.w3.org/2000/svg" xmlns:xlink="http://www.w3.org/1999/xlink" preserveAspectRatio="xMidYMid meet" viewBox="0 0 640 640" width="640" height="640"><defs><path d="M320 370C320 419.67 279.67 460 230 460C180.33 460 140 419.67 140 370C140 320.33 180.33 280 230 280C279.67 280 320 320.33 320 370Z" id="iH5lN66Ut"></path><path d="M410 214.24C410 263.91 369.67 304.24 320 304.24C270.33 304.24 230 263.91 230 214.24C230 164.57 270.33 124.24 320 124.24C369.67 124.24 410 164.57 410 214.24Z" id="b1mtjwk4VL"></path><linearGradient id="gradiente5mkFa7la" gradientUnits="userSpaceOnUse" x1="232.5" y1="206.91" x2="404.66" y2="206.33"><stop style="stop-color: #663399;stop-opacity: 1" offset="0%"></stop><stop style="stop-color: #333176;stop-opacity: 0.75" offset="100%"></stop></linearGradient><path d="M320 370C320 419.67 360.33 460 410 460C459.67 460 500 419.67 500 370C500 320.33 459.67 280 410 280C360.33 280 320 320.33 320 370Z" id="c1jhRb6w5"></path></defs><g><g><g><use xlink:href="#iH5lN66Ut" opacity="1" fill="#663399" fill-opacity="0.7"></use></g><g><use xlink:href="#b1mtjwk4VL" opacity="1" fill="url(#gradiente5mkFa7la)"></use></g><g><use xlink:href="#c1jhRb6w5" opacity="1" fill="#333176" fill-opacity="0.7"></use></g></g></g></svg>